<mxfile host="app.diagrams.net" modified="2021-07-02T08:51:56.597Z" agent="5.0 (Windows NT 6.1; Win64; x64) AppleWebKit/537.36 (KHTML, like Gecko) Chrome/91.0.4472.124 Safari/537.36" etag="IiEj1kVckskafbtyZbA-" version="14.8.3" type="github">
  <diagram id="zWjm_z63V3XgTVhYP8XZ" name="Page-1">
    <mxGraphModel dx="1574" dy="1050" grid="1" gridSize="10" guides="1" tooltips="1" connect="1" arrows="1" fold="1" page="1" pageScale="1" pageWidth="1200" pageHeight="1920" math="0" shadow="0">
      <root>
        <mxCell id="0" />
        <mxCell id="1" parent="0" />
        <mxCell id="GFzgaptC59pULxbVYTi3-1" value="本地主机" style="rounded=1;whiteSpace=wrap;html=1;" vertex="1" parent="1">
          <mxGeometry x="540" y="990" width="120" height="50" as="geometry" />
        </mxCell>
        <mxCell id="GFzgaptC59pULxbVYTi3-2" value="" style="rounded=0;whiteSpace=wrap;html=1;" vertex="1" parent="1">
          <mxGeometry x="520" y="800" width="160" height="170" as="geometry" />
        </mxCell>
        <mxCell id="GFzgaptC59pULxbVYTi3-3" value="FlashOrder" style="rounded=1;whiteSpace=wrap;html=1;fillColor=#dae8fc;strokeColor=#6c8ebf;" vertex="1" parent="1">
          <mxGeometry x="540" y="820" width="120" height="40" as="geometry" />
        </mxCell>
        <mxCell id="GFzgaptC59pULxbVYTi3-4" value="LupSell" style="rounded=1;whiteSpace=wrap;html=1;fillColor=#dae8fc;strokeColor=#6c8ebf;" vertex="1" parent="1">
          <mxGeometry x="540" y="870" width="120" height="40" as="geometry" />
        </mxCell>
        <mxCell id="GFzgaptC59pULxbVYTi3-5" value="LupBuy" style="rounded=1;whiteSpace=wrap;html=1;fillColor=#dae8fc;strokeColor=#6c8ebf;" vertex="1" parent="1">
          <mxGeometry x="540" y="920" width="120" height="40" as="geometry" />
        </mxCell>
        <mxCell id="GFzgaptC59pULxbVYTi3-6" value="云主机" style="rounded=1;whiteSpace=wrap;html=1;" vertex="1" parent="1">
          <mxGeometry x="190" y="670" width="120" height="50" as="geometry" />
        </mxCell>
        <mxCell id="GFzgaptC59pULxbVYTi3-7" value="" style="rounded=0;whiteSpace=wrap;html=1;" vertex="1" parent="1">
          <mxGeometry x="170" y="480" width="160" height="170" as="geometry" />
        </mxCell>
        <mxCell id="GFzgaptC59pULxbVYTi3-8" value="CmbTrans" style="rounded=1;whiteSpace=wrap;html=1;fillColor=#dae8fc;strokeColor=#6c8ebf;" vertex="1" parent="1">
          <mxGeometry x="190" y="500" width="120" height="40" as="geometry" />
        </mxCell>
        <mxCell id="GFzgaptC59pULxbVYTi3-9" value="MarketInfo" style="rounded=1;whiteSpace=wrap;html=1;fillColor=#dae8fc;strokeColor=#6c8ebf;" vertex="1" parent="1">
          <mxGeometry x="190" y="550" width="120" height="40" as="geometry" />
        </mxCell>
        <mxCell id="GFzgaptC59pULxbVYTi3-10" value="LupWatch" style="rounded=1;whiteSpace=wrap;html=1;fillColor=#dae8fc;strokeColor=#6c8ebf;" vertex="1" parent="1">
          <mxGeometry x="190" y="600" width="120" height="40" as="geometry" />
        </mxCell>
        <mxCell id="GFzgaptC59pULxbVYTi3-11" value="券商物理机" style="rounded=1;whiteSpace=wrap;html=1;" vertex="1" parent="1">
          <mxGeometry x="880" y="680" width="120" height="50" as="geometry" />
        </mxCell>
        <mxCell id="GFzgaptC59pULxbVYTi3-12" value="" style="rounded=0;whiteSpace=wrap;html=1;" vertex="1" parent="1">
          <mxGeometry x="860" y="490" width="160" height="170" as="geometry" />
        </mxCell>
        <mxCell id="GFzgaptC59pULxbVYTi3-13" value="Leo/Lup" style="rounded=1;whiteSpace=wrap;html=1;fillColor=#dae8fc;strokeColor=#6c8ebf;" vertex="1" parent="1">
          <mxGeometry x="880" y="510" width="120" height="40" as="geometry" />
        </mxCell>
        <mxCell id="GFzgaptC59pULxbVYTi3-14" value="Market" style="rounded=1;whiteSpace=wrap;html=1;fillColor=#dae8fc;strokeColor=#6c8ebf;" vertex="1" parent="1">
          <mxGeometry x="870" y="600" width="120" height="40" as="geometry" />
        </mxCell>
      </root>
    </mxGraphModel>
  </diagram>
</mxfile>
